<?xml version="1.0" encoding="UTF-8"?>
<svg id="Layer_1" data-name="Layer 1" xmlns="http://www.w3.org/2000/svg" viewBox="0 0 1345.31 460.61">
  <defs>
    <style>
      .cls-1 {
        fill: #1d1d1b;
      }
    </style>
  </defs>
  <path class="cls-1" d="M936.08,97.79c2.06,1.72,5.13,2.58,9.25,2.58s19.56.35,20.59,0c1.7-.33,3.16-.5,4.36-.5s2.49-.19,3.87-.52c3.76-1.37,6.94-3.26,9.52-5.67,2.58-2.39,35.52-32.15,38.07-34.73,2.58-2.58,5.24-5.05,7.98-7.46,2.39-2.39,5.4-5.15,9.02-8.23,3.6-3.1,5.22-6.69,4.88-10.81-.69-.35-1.12-.77-1.29-1.29-.19-.52-.6-.94-1.29-1.29-1.72-1.04-4.47-1.54-8.23-1.54s-47.94.44-49.15.25c-1.21-.17-8.67,2.83-10.04,3.87-2.41,1.72-4.55,4.11-6.42,7.19-1.89,3.1-11.6,18.2-14.67,22.65-3.1,4.47-6.36,9.1-9.79,13.88-1.37,2.41-2.91,4.74-4.61,6.96-1.72,2.22-2.93,4.72-3.62,7.46-1.02,3.43-.52,5.84,1.56,7.19Z"/>
  <path class="cls-1" d="M299.36,97.11c6.44,3.64,13.45,5.47,21.01,5.47s14.86-1.95,21.36-5.86c6.48-3.91,11.6-9.14,15.34-15.67s5.61-13.59,5.61-21.2-1.91-13.99-5.72-20.14c-3.8-6.15-8.94-11.01-15.4-14.59-6.46-3.57-13.53-5.36-21.2-5.36s-14.57,1.87-21.01,5.61c-6.46,3.74-11.6,8.83-15.4,15.25-3.8,6.42-5.72,13.4-5.72,20.95s1.91,14.36,5.72,20.66c3.8,6.28,8.94,11.24,15.4,14.88Z"/>
  <path class="cls-1" d="M248.71,164.63c-10-18.18-22.98-31.86-38.97-41-15.96-9.14-32.86-13.72-50.67-13.72-7.83,0-15.48,1.18-22.94,3.57-7.48,2.37-15,5.78-22.55,10.2-3.8,2.31-7.44,3.53-10.91,3.66-3.47.15-6.55-.58-9.23-2.18-2.68-1.6-4.9-3.93-6.67-6.98-1.64-2.81-3.7-4.88-6.17-6.28-2.49-1.39-5.49-2.04-8.98-1.89-3.51.15-7.56,1.18-12.18,3.16-4.7,2.04-9.37,4.11-14.03,6.21-4.66,2.12-9.37,4.36-14.13,6.73-4.49,2.24-9.54,4.8-15.19,7.65-5.24,2.87-9.06,6.48-11.47,10.87-2.41,4.39-3.14,8.87-2.2,13.47.96,4.57,3.66,8.54,8.06,11.87l.21.1c6.67,5.17,11.51,9.5,14.53,12.95,3.03,3.47,5.2,7.88,6.48,13.22,1.29,5.34,1.97,12.93,2.04,22.8,0,9.43.04,16.33.1,20.7v64.59c0,21.86-.1,45.14-.31,69.81-.06,10.81-.69,18.97-1.83,24.48-1.16,5.51-3.18,9.73-6.07,12.7-2.89,2.95-7.4,5.88-13.51,8.81-6.73,3.26-10.66,8-11.78,14.24-1.12,6.21.46,11.91,4.74,17.08,4.28,5.15,10.16,7.94,17.64,8.35,12.99.54,27.12.81,42.42.81s29.03-.27,41.21-.81c8.02-.42,14.19-3.45,18.56-9.12,4.34-5.67,5.78-11.78,4.28-18.31s-5.76-11.12-12.74-13.76c-6.67-2.45-11.31-4.84-13.92-7.15-2.62-2.31-4.26-5.3-4.9-8.98-.64-3.66-.96-10.1-.96-19.26v-19.29c0-3.6.56-6.4,1.68-8.4,1.12-2.02,2.99-3.26,5.65-3.78,2.64-.5,6.19-.23,10.6.87.54.12,1.04.25,1.48.35.46.1.91.25,1.39.46,5.15,1.5,9.48,2.56,12.95,3.16,3.47.62,7.44.91,11.93.91,22.98,0,43.66-5.15,62.05-15.44,18.39-10.31,32.86-25.06,43.43-44.31s15.86-41.71,15.86-67.42-4.99-47.53-14.98-65.71ZM189.96,282.46c-3.72,10.74-9.35,18.91-16.87,24.52-7.5,5.61-16.9,8.42-28.18,8.42-9.12,0-17.35-2.04-24.69-6.13-7.34-4.07-13.09-9.62-17.29-16.67-4.18-7.04-6.26-14.78-6.26-23.19v-60.58c0-9.73,1.91-18.35,5.76-25.91,3.84-7.54,9.16-13.38,15.96-17.54,6.8-4.14,14.51-6.21,23.15-6.21,11.01,0,20.57,3.33,28.7,9.95,8.13,6.63,14.38,16.23,18.77,28.8,4.38,12.57,6.57,27.56,6.57,44.97,0,15.63-1.87,28.82-5.61,39.57Z"/>
  <path class="cls-1" d="M840.89,311.01c-6.73-2.87-11.47-5.65-14.24-8.38-2.74-2.7-4.61-6.67-5.55-11.87-.96-5.22-1.48-13.65-1.54-25.35-.27-27.39-.23-54.88.1-82.5.27-19.7-4.8-35.58-15.19-47.61-10.41-12.03-24.52-19.22-42.33-21.57-17.81-2.35-37.18.5-58.13,8.52-5.78,2.1-10.35,2.87-13.72,2.29-3.35-.58-5.76-2.56-7.19-5.96-1.41-3.39-2.16-8.46-2.22-15.19-.08-10.54-.1-21.22-.1-32.07s.02-20.82.1-29.93c.06-5.38.08-10.74.08-16.13,0-6.92-1.54-12.59-4.63-16.98-3.1-4.39-7.48-7.02-13.15-7.94-5.67-.94-12.12.08-19.33,2.99-8.56,3.53-16.92,7.27-25.08,11.22-5.78,2.93-11.55,5.88-17.33,8.87-5.03,2.78-8.79,6.38-11.26,10.76-2.49,4.39-3.24,8.96-2.24,13.72.98,4.76,3.82,9,8.52,12.74,6.17,4.7,10.72,8.75,13.61,12.18,2.89,3.45,4.93,7.52,6.11,12.24,1.18,4.74,1.79,11.24,1.79,19.53.21,36.24.31,65.28.31,87.14s-.1,46.41-.31,73.67c-.06,11.7-.6,20.1-1.58,25.19-1,5.11-2.91,9.02-5.76,11.74-2.87,2.7-7.83,5.78-14.9,9.16-6.17,3.05-9.73,7.77-10.66,14.13-.91,6.36.73,12.14,4.9,17.33,4.18,5.2,9.98,7.94,17.39,8.21,13.99.33,28.26.52,42.83.56,14.55.04,28.03-.12,40.48-.46,7.94-.33,14.11-3.24,18.5-8.73,4.39-5.47,5.92-11.47,4.59-18-1.33-6.53-5.38-11.14-12.18-13.86-6.26-2.45-10.72-4.9-13.43-7.4-2.68-2.47-4.51-6.28-5.51-11.41-.98-5.13-1.58-13.45-1.77-24.94v-1.64c-.15-6.65-.15-20.08,0-40.28.06-5.78.08-11.55.08-17.33.15-9.31,1.68-17.52,4.66-24.63,2.95-7.11,7.46-12.64,13.51-16.58,8.62-5.78,17.39-8.4,26.31-7.9,8.89.52,16.29,3.99,22.17,10.41s8.89,15.11,9.02,26.04c.42,24.96.42,48.44,0,70.47-.27,11.97-.85,20.49-1.77,25.6-.94,5.09-2.7,8.92-5.32,11.47-2.62,2.56-7.21,5.26-13.8,8.1-6.61,3.05-10.45,7.79-11.53,14.21-1.08,6.44.46,12.34,4.63,17.75,4.18,5.4,9.95,8.25,17.29,8.52,13.94.33,28.22.52,42.83.56,14.61.04,28.08-.12,40.38-.46,7.9-.33,13.99-3.2,18.31-8.56,4.32-5.38,5.92-11.26,4.8-17.71-1.12-6.42-4.99-11.1-11.58-14.01Z"/>
  <path class="cls-1" d="M376.65,310.8c-6.46-2.72-11.01-5.38-13.65-8-2.66-2.62-4.47-6.53-5.4-11.68-.96-5.17-1.58-13.7-1.85-25.6v-1.83c-.27-17.06-.39-34.46-.39-52.16s.1-43.06.29-76.02c0-7.27-1.6-13.13-4.78-17.6-3.2-4.45-7.65-7.11-13.36-7.94-5.71-.85-12.18.31-19.37,3.51-3.14,1.35-6.34,2.74-9.6,4.18-6.32,2.85-12.16,5.63-17.54,8.31-5.36,2.68-10.77,5.49-16.21,8.42-5.24,2.91-8.94,6.67-11.12,11.26-2.16,4.59-2.49,9.23-.96,13.92,1.52,4.7,4.84,8.73,9.93,12.14,5.84,3.8,10.06,6.98,12.66,9.54,2.58,2.54,4.47,5.86,5.65,9.93s1.81,10.04,1.89,17.85c.06,10.6.1,20.72.15,30.34.04,9.6-.02,17.73-.15,24.31-.21,11.76-.87,20.47-2,26.1-1.12,5.65-3.1,9.95-5.92,12.95-2.81,2.99-7.42,5.86-13.82,8.56-6.32,3.08-10.04,7.75-11.16,14.09-1.12,6.32.39,12.14,4.55,17.44,4.14,5.3,9.98,8.08,17.54,8.35,14.13.33,28.45.52,42.91.56,14.48.04,27.95-.12,40.4-.46,7.94-.33,14.07-3.2,18.39-8.56,4.32-5.38,5.88-11.28,4.7-17.75s-5.11-11.18-11.78-14.17Z"/>
  <path class="cls-1" d="M1067.46,170.38c-10.33-18.83-24.65-33.62-42.94-44.37-18.29-10.72-38.84-16.11-61.68-16.11s-43.45,5.38-62.01,16.17c-18.56,10.77-33.17,25.6-43.79,44.51-10.64,18.89-15.96,40.07-15.96,63.53s5.17,44.45,15.54,63.22c10.37,18.77,24.71,33.48,43.04,44.16,18.31,10.66,38.97,16,61.95,16s43.5-5.32,61.95-15.96c18.45-10.64,32.96-25.37,43.54-44.2s15.86-40.05,15.86-63.63-5.17-44.49-15.5-63.32ZM1007.85,278.63c-4.05,12.2-9.71,21.45-16.98,27.72-7.27,6.3-15.46,9.44-24.58,9.44s-17.91-3.33-26.04-10c-8.13-6.65-14.82-16.38-20.05-29.16-5.24-12.78-8.21-27.91-8.96-45.39-.69-16.79,1-31.17,5.05-43.18,4.03-11.99,9.68-21.07,16.98-27.22,7.27-6.15,15.42-9.23,24.46-9.23s17.96,3.26,26.1,9.79c8.17,6.53,14.86,16.11,20.1,28.76,5.24,12.64,8.19,27.6,8.87,44.87.75,16.85-.89,31.4-4.95,43.6Z"/>
  <path class="cls-1" d="M1344.98,325.23c-1.08-6.36-4.93-11.04-11.51-14.03-6.46-2.7-11.12-5.53-13.97-8.46-2.87-2.91-4.78-7.09-5.78-12.49-.98-5.4-1.58-13.88-1.77-25.44-.21-12.3-.29-23.07-.27-32.27.04-9.21.19-23.61.46-43.18.08-1.29.1-3.45.1-6.44.27-20.72-5.32-37.24-16.77-49.54-11.45-12.3-26.35-19.35-44.72-21.11-18.35-1.77-37.12,1.93-56.28,11.12-5.17,2.37-9.66,3.72-13.47,4.03-3.8.29-7.17-.35-10.1-1.95-2.91-1.58-5.72-4.2-8.35-7.79-2.78-4.07-6.36-6.5-10.7-7.29-4.36-.77-9.62.23-15.82,3.01-7.61,3.47-18.08,8.5-31.4,15.09-2.24,1.1-3.95,1.93-5.11,2.49-1.14.58-2.89,1.45-5.2,2.62-5.63,2.7-9.68,6.44-12.14,11.2-2.45,4.76-2.95,9.6-1.52,14.48,1.41,4.9,4.72,9.08,9.89,12.55,5.84,3.74,10.04,6.86,12.59,9.37,2.54,2.51,4.39,5.82,5.51,9.89,1.1,4.07,1.75,10.14,1.87,18.14.08,3.95.15,7.9.21,11.85.06,7.81.12,15.42.15,22.84.04,7.4,0,14.61-.15,21.61-.27,11.08-.98,19.37-2.14,24.83s-3.16,9.66-6.01,12.59c-2.87,2.93-7.29,5.76-13.26,8.46-6.46,3.14-10.27,7.83-11.43,14.13s.39,12.05,4.63,17.29c4.26,5.24,10.25,8.02,18,8.35,27.74.89,55.38.89,82.92,0,7.61-.33,13.55-3.1,17.85-8.25,4.28-5.17,5.96-10.89,5.09-17.15-.89-6.26-4.43-10.91-10.6-13.97-6.55-2.99-11.18-5.8-13.92-8.42-2.76-2.62-4.72-6.53-5.86-11.72-1.16-5.2-1.95-13.51-2.35-24.94-.08-.42-.1-1.06-.1-1.93-.42-15.44-.42-34.27,0-56.51.27-10,1.97-18.48,5.09-25.48,3.14-7,7.65-12.49,13.57-16.42,8.77-5.72,17.54-8.25,26.31-7.61,8.77.64,16.04,4.16,21.82,10.56,5.78,6.38,8.73,14.82,8.87,25.29.21,11.82.31,23.9.31,36.24s-.1,23.4-.31,33.19c-.27,12.18-.94,21.05-2,26.62-1.06,5.57-2.87,9.66-5.44,12.24-2.6,2.58-6.82,5.07-12.66,7.44-6.94,3.05-11.04,7.83-12.28,14.34-1.27,6.48.27,12.45,4.59,17.89,4.3,5.44,10.35,8.33,18.1,8.67,13.05.42,27.06.6,42.06.6s28.43-.23,40.34-.71c7.81-.33,13.88-3.16,18.18-8.46,4.32-5.3,5.94-11.14,4.84-17.5Z"/>
  <path class="cls-1" d="M587.81,285.1c-3.28-5.84-8.33-9.19-15.13-10.04-6.82-.85-13.07,1.64-18.77,7.5-6.61,6.86-13.8,12.16-21.63,15.9-7.81,3.74-16.75,5.61-26.81,5.61-11.64,0-21.92-3.1-30.9-9.29-8.98-6.17-16.02-15.57-21.16-28.14-5.13-12.57-7.71-28.14-7.71-46.7,0-15.77,1.87-28.76,5.61-38.97,3.74-10.18,8.87-17.64,15.4-22.32,6.53-4.7,14.05-7.05,22.55-7.05,8.02,0,14.57,2.1,19.68,6.28,5.09,4.18,9.31,10.89,12.64,20.14,5.78,15.71,15.32,24.77,28.62,27.22,13.28,2.45,24.29-1.27,33.02-11.16,8.75-9.89,10.22-22.44,4.45-37.68-3.2-8.5-8.73-16.31-16.63-23.46-7.88-7.13-17.83-12.84-29.82-17.12-12.01-4.28-25.52-6.42-40.55-6.42-24.75,0-46.43,5.78-65.05,17.37-18.64,11.6-32.96,27.08-43,46.45-10.02,19.39-15.05,40.52-15.05,63.43,0,21.63,4.68,41.65,14.03,60.08,9.35,18.41,22.71,33.15,40.09,44.2,17.35,11.04,37.57,16.56,60.62,16.56,15.09,0,29.05-2.37,41.92-7.13,12.84-4.76,23.82-11.18,32.94-19.22,9.1-8.06,15.96-16.96,20.59-26.66,3.33-7.09,3.35-13.53.04-19.39Z"/>
</svg>